<?xml version="1.0" encoding="UTF-8"?>
<svg version="1.1" xmlns="http://www.w3.org/2000/svg" width="814" height="190">
<path d="M0 0 C0.639375 0.680625 1.27875 1.36125 1.9375 2.0625 C2.515 1.216875 3.0925 0.37125 3.6875 -0.5 C10.63379194 -8.73408763 21.4815699 -12.80358064 31.9375 -13.9375 C45.15498577 -14.2554939 57.62824702 -11.54176114 67.9375 -2.9375 C77.77266224 6.4683496 81.92639489 18.12977808 82.25482464 31.64502335 C82.29601038 35.89426431 82.26875621 40.14146746 82.23046875 44.390625 C82.22486192 46.23435112 82.22059697 48.07808175 82.21760559 49.92181396 C82.20624234 54.73537906 82.17685017 59.54866537 82.14349365 64.36212158 C82.11260738 69.28955313 82.09906089 74.21703046 82.08398438 79.14453125 C82.05197094 88.78397553 82.00087979 98.42321443 81.9375 108.0625 C78.49632032 109.91033714 76.15089602 110.31926311 72.21875 110.328125 C71.12175781 110.33070313 70.02476562 110.33328125 68.89453125 110.3359375 C67.18330078 110.32433594 67.18330078 110.32433594 65.4375 110.3125 C64.29667969 110.32023437 63.15585937 110.32796875 61.98046875 110.3359375 C60.88347656 110.33335937 59.78648437 110.33078125 58.65625 110.328125 C57.65529297 110.32586914 56.65433594 110.32361328 55.62304688 110.32128906 C52.87496422 110.05647382 51.33540133 109.35011981 48.9375 108.0625 C48.92941315 107.15318726 48.92132629 106.24387451 48.91299438 105.30700684 C48.83488051 96.71515141 48.74753963 88.1234491 48.64997292 79.53179169 C48.60014107 75.1153016 48.5538104 70.69883392 48.515625 66.28222656 C48.47860589 62.01569307 48.43220197 57.74935323 48.37943649 53.48298645 C48.36098052 51.85963863 48.3458405 50.23624943 48.33415604 48.61283875 C48.31714187 46.32958368 48.28807273 44.0467637 48.25634766 41.76367188 C48.23636215 39.81841614 48.23636215 39.81841614 48.2159729 37.8338623 C47.7195503 31.11080429 46.36210478 25.3474446 41.9375 20.0625 C36.7096093 16.23721413 31.15323016 16.44178908 24.9375 17.0625 C20.0332733 17.96929076 16.26732706 19.23795578 12.9375 23.0625 C9.92567213 27.5802418 9.7917064 31.15917617 9.7956543 36.40795898 C9.79044266 37.52551575 9.79044266 37.52551575 9.78512573 38.66564941 C9.77777649 40.28293042 9.77242667 41.90022146 9.76883507 43.51751518 C9.76166689 46.07711339 9.7459987 48.63652021 9.72749329 51.19606018 C9.67503318 58.47320977 9.6270265 65.75025316 9.61157227 73.02758789 C9.60149874 77.4792141 9.57219357 81.93035678 9.53025246 86.38179207 C9.51793131 88.0782207 9.51282324 89.77471758 9.51505089 91.4711895 C9.51740031 93.84386827 9.49526819 96.21515561 9.4675293 98.58764648 C9.47743141 99.63901543 9.47743141 99.63901543 9.48753357 100.71162415 C9.42307157 104.06744929 9.13774247 105.80086937 7.07321167 108.49832153 C4.30110382 110.52859157 2.5996608 110.56487781 -0.81640625 110.55859375 C-2.46866211 110.55956055 -2.46866211 110.55956055 -4.15429688 110.56054688 C-5.29962891 110.54056641 -6.44496094 110.52058594 -7.625 110.5 C-8.77419922 110.50708984 -9.92339844 110.51417969 -11.10742188 110.52148438 C-19.55903904 110.45711939 -19.55903904 110.45711939 -21.85131836 108.66040039 C-24.35825478 105.35302307 -24.16873928 102.99387923 -24.12841797 98.89135742 C-24.11865936 97.59207809 -24.10890076 96.29279877 -24.09884644 94.95414734 C-24.09148342 94.256565 -24.08412041 93.55898266 -24.07653427 92.84026146 C-24.05448674 90.64800626 -24.04041951 88.45583811 -24.02883911 86.26350403 C-23.99529978 80.02849406 -23.9542553 73.79362418 -23.89111328 67.55883789 C-23.85305618 63.74396956 -23.83031335 59.92925224 -23.81680679 56.11422157 C-23.80884157 54.67076756 -23.79536271 53.22733149 -23.77587509 51.78398705 C-23.63268235 40.9738649 -23.60406386 29.23968463 -30.0625 20.0625 C-36.40241646 16.23213381 -43.14216979 16.12408651 -50.3359375 17.49609375 C-55.62454278 19.12725362 -59.28340663 22.28316745 -62.0625 27.0625 C-63.70867592 31.96631818 -64.29206853 36.13473952 -64.21020508 41.29541016 C-64.19859596 42.3236515 -64.19859596 42.3236515 -64.18675232 43.37266541 C-64.16921495 44.84806638 -64.1472131 46.3234199 -64.1211338 47.79869461 C-64.08144327 50.13619026 -64.05725369 52.47338204 -64.03752136 54.81112671 C-63.97970919 61.45288941 -63.90208699 68.09419227 -63.79516602 74.73535156 C-63.73067349 78.80879981 -63.69065752 82.8818859 -63.66599083 86.95576096 C-63.65175533 88.50358818 -63.6281783 90.05135939 -63.59498024 91.59889603 C-63.54917986 93.76251626 -63.53448848 95.92433481 -63.52661133 98.08837891 C-63.50947586 99.31746979 -63.49234039 100.54656067 -63.47468567 101.81289673 C-64.2291803 105.98395568 -65.80098333 107.4483465 -69.0625 110.0625 C-71.5703125 110.67773438 -71.5703125 110.67773438 -74.1875 110.65625 C-75.14140625 110.65367187 -76.0953125 110.65109375 -77.078125 110.6484375 C-78.06296875 110.62007813 -79.0478125 110.59171875 -80.0625 110.5625 C-81.53976562 110.56636719 -81.53976562 110.56636719 -83.046875 110.5703125 C-88.67832384 110.49421184 -92.88084964 110.24415036 -97.0625 106.0625 C-97.16250925 104.5869879 -97.19325227 103.10671741 -97.19621277 101.62782288 C-97.20047775 100.67012497 -97.20474274 99.71242706 -97.20913696 98.72570801 C-97.20868378 97.66646118 -97.20823059 96.60721436 -97.20776367 95.51586914 C-97.21112228 94.40702866 -97.2144809 93.29818817 -97.21794128 92.15574646 C-97.2274841 88.46970517 -97.22939604 84.78370914 -97.23046875 81.09765625 C-97.23367894 78.54796835 -97.23704282 75.99828064 -97.24055481 73.44859314 C-97.24655438 68.09601337 -97.24843652 62.74345063 -97.24780273 57.39086914 C-97.24720179 51.19754177 -97.25775525 45.00430145 -97.2735464 38.81099612 C-97.28817782 32.86134981 -97.29179135 26.91173022 -97.29119301 20.96206474 C-97.29237723 18.42661623 -97.29682353 15.89116715 -97.30452538 13.35573006 C-97.31426938 9.81658733 -97.31146941 6.27767139 -97.30541992 2.73852539 C-97.31103943 1.6813028 -97.31665894 0.6240802 -97.32244873 -0.46517944 C-97.31825424 -1.42569717 -97.31405975 -2.3862149 -97.30973816 -3.37583923 C-97.31028293 -4.21337203 -97.31082769 -5.05090483 -97.31138897 -5.91381741 C-97.0625 -7.9375 -97.0625 -7.9375 -95.0625 -9.9375 C-85.7170036 -11.39644347 -73.93602369 -12.77469943 -65.0625 -8.9375 C-64.5675 -5.9675 -64.5675 -5.9675 -64.0625 -2.9375 C-63.62421875 -3.31261719 -63.1859375 -3.68773437 -62.734375 -4.07421875 C-42.71524902 -20.22786309 -17.81460797 -17.61444383 0 0 Z " fill="#161615" transform="translate(473.0625,32.9375)"/>
<path d="M0 0 C2.10353554 3.23017492 2.0840467 5.6501455 2 9.4375 C2.31249923 13.66382236 2.31249923 13.66382236 4.96875 16.79296875 C7.61151557 18.18368335 10.14095361 19.14309831 13 20 C13.763125 20.26167969 14.52625 20.52335937 15.3125 20.79296875 C17.84470368 21.39436712 19.44275749 21.54270851 22 21 C24.84029799 19.09947564 27.26549831 17.04480676 29.73828125 14.6875 C32 13 32 13 34.11328125 13.12109375 C41.01149769 16.33454861 46.27041101 23.02194532 49.25 29.875 C48.90074226 34.24072171 46.77736342 36.97725267 44.453125 40.62109375 C42.63169207 43.60295572 41.85030405 45.48214519 42 49 C43.78045049 54.95578497 43.78045049 54.95578497 48 59 C49.43566947 59.12692559 50.87371788 59.22786576 52.3125 59.3125 C56.61550724 59.74903697 58.96249631 60.77265233 62 64 C63.48536644 68.45609931 63.30624792 72.83110844 63.375 77.5 C63.43107422 78.94439453 63.43107422 78.94439453 63.48828125 80.41796875 C63.52112507 83.03452611 63.48579781 85.42831688 63 88 C59.96308833 90.89715998 57.01712605 91.33959126 52.9375 91.8125 C49.02291776 92.51049386 48.26377242 92.70325603 45.5 95.8125 C45.005 96.864375 44.51 97.91625 44 99 C43.5875 99.845625 43.175 100.69125 42.75 101.5625 C41.90206635 104.31828436 41.67050464 106.12868331 42 109 C43.7707606 111.29207274 43.7707606 111.29207274 46.0625 113.375 C49.94534201 117.55492779 49.94534201 117.55492779 50.4375 121.5625 C47.3711925 128.89497446 40.99144809 135.21604501 34 139 C30.02515554 139.09243824 27.20320492 137.27596139 24 135 C23.525625 134.278125 23.05125 133.55625 22.5625 132.8125 C21.10380925 130.72963079 21.10380925 130.72963079 18.375 130.5625 C11.8472352 131.26051621 11.8472352 131.26051621 6 134 C4.27405285 137.53819167 3.64656337 141.13678384 3 145 C1.61608498 151.51593323 1.61608498 151.51593323 -0.75 153.375 C-8.31463002 155.47628612 -17.57336606 156.56635801 -25.125 153.875 C-28 152 -28 152 -29.375 149.4375 C-30.18651112 144.97418882 -30.66040802 140.52193533 -31 136 C-32.1446875 135.62875 -32.1446875 135.62875 -33.3125 135.25 C-35.45208684 134.52471632 -37.58109797 133.76212364 -39.671875 132.90625 C-41.10273438 132.33390625 -41.10273438 132.33390625 -42.5625 131.75 C-43.92568359 131.18539062 -43.92568359 131.18539062 -45.31640625 130.609375 C-48.6270536 129.85761228 -50.00943871 130.50720734 -53 132 C-53.99 132.33 -54.98 132.66 -56 133 C-56.33 133.99 -56.66 134.98 -57 136 C-59.125 136.75 -59.125 136.75 -62 137 C-68.9419303 133.60616741 -73.96561821 127.11140744 -78.125 120.75 C-79 118 -79 118 -78.5 115.625 C-77.20793977 113.36389459 -75.84422898 111.19006786 -74.4375 109 C-71.76913222 104.82291554 -71.76913222 104.82291554 -71 100 C-72.5433431 96.2137972 -72.5433431 96.2137972 -75 93 C-77.77251852 92.54393425 -80.55082855 92.16407166 -83.3359375 91.79296875 C-86.62138596 90.81504201 -87.26490336 89.9063335 -89 87 C-89.63897087 83.16877522 -89.50952482 79.31648122 -89.5 75.4375 C-89.54253906 73.85678711 -89.54253906 73.85678711 -89.5859375 72.24414062 C-89.59318193 69.40613387 -89.52889956 66.78853107 -89 64 C-86.14840043 61.27259902 -83.19888249 60.59772693 -79.375 59.875 C-76.80452549 59.37494182 -74.49602338 58.83200779 -72 58 C-70.96683512 55.20827761 -70.96683512 55.20827761 -70.3125 51.9375 C-70.06113281 50.83277344 -69.80976563 49.72804687 -69.55078125 48.58984375 C-69.36902344 47.73519531 -69.18726563 46.88054688 -69 46 C-70.36125 44.9790625 -70.36125 44.9790625 -71.75 43.9375 C-75.28340574 40.95934373 -77.19740456 38.28116418 -79 34 C-77.95176928 28.78756503 -75.21952988 25.54418958 -71.625 21.8125 C-71.14289063 21.29236328 -70.66078125 20.77222656 -70.1640625 20.23632812 C-63.42289361 13.06467698 -63.42289361 13.06467698 -59.25 12.875 C-55.85124356 14.05149261 -54.55445163 15.18754615 -52 17.625 C-49.02927514 20.49154635 -49.02927514 20.49154635 -45.0625 21.1875 C-44.051875 20.795625 -43.04125 20.40375 -42 20 C-41.27554688 19.87238281 -40.55109375 19.74476562 -39.8046875 19.61328125 C-36.80013593 18.83487432 -35.29135039 18.13971691 -33 16 C-30.43516104 10.66221015 -29.25051451 4.75613715 -28 -1 C-7.56033751 -5.42793462 -7.56033751 -5.42793462 0 0 Z M-39.171875 54.6015625 C-44.4277736 61.49712177 -47.4363678 70.31231381 -47 79 C-45.57197951 89.34974851 -41.7255122 97.15561458 -33.6875 103.875 C-26.05076372 109.36988036 -18.34404048 111.11146263 -9 110 C0.64896125 107.9757424 7.8078878 102.62884549 13.6640625 94.765625 C17.95258374 87.69332681 19.87397088 79.6375687 18.59375 71.41796875 C16.11909935 61.34027958 11.83904046 53.35923571 2.953125 47.6953125 C-11.87030764 39.82395486 -27.70155395 42.45386028 -39.171875 54.6015625 Z " fill="#161616" transform="translate(302,3)"/>
<path d="M0 0 C2.60119083 2.02892885 4.97284666 3.94100212 7.125 6.4375 C7.125 7.0975 7.125 7.7575 7.125 8.4375 C7.785 8.4375 8.445 8.4375 9.125 8.4375 C10.115 10.9125 10.115 10.9125 11.125 13.4375 C11.785 13.4375 12.445 13.4375 13.125 13.4375 C23.62143567 32.13661342 28.66830345 49.95767884 22.75439453 71.46972656 C17.31204838 88.4849748 6.15876512 102.06683583 -9.4375 110.625 C-22.32827752 116.77116745 -36.68294491 118.22725554 -50.45703125 114.45703125 C-55.61256751 112.60247862 -60.03323693 110.39137858 -64.57250977 107.3347168 C-65.37930679 106.79268112 -66.18610382 106.25064545 -67.01734924 105.69218445 C-67.93688637 105.07111565 -67.93688637 105.07111565 -68.875 104.4375 C-68.88308685 105.10957489 -68.89117371 105.78164978 -68.89950562 106.47409058 C-68.98535284 113.449233 -69.08484703 120.42408469 -69.19238281 127.39892578 C-69.23074082 130.00434499 -69.26558145 132.6098184 -69.296875 135.21533203 C-69.34237751 138.95364803 -69.40039626 142.69158865 -69.4609375 146.4296875 C-69.47248871 147.60054901 -69.48403992 148.77141052 -69.49594116 149.97775269 C-69.51581085 151.05872223 -69.53568054 152.13969177 -69.55615234 153.25341797 C-69.56947601 154.20828094 -69.58279968 155.16314392 -69.5965271 156.14694214 C-69.875 158.4375 -69.875 158.4375 -71.875 160.4375 C-74.54882813 160.69628906 -74.54882813 160.69628906 -77.90625 160.703125 C-79.10894531 160.70570313 -80.31164062 160.70828125 -81.55078125 160.7109375 C-83.44376953 160.69933594 -83.44376953 160.69933594 -85.375 160.6875 C-86.63699219 160.69523438 -87.89898437 160.70296875 -89.19921875 160.7109375 C-90.40191406 160.70835937 -91.60460937 160.70578125 -92.84375 160.703125 C-93.95169922 160.70086914 -95.05964844 160.69861328 -96.20117188 160.69628906 C-98.875 160.4375 -98.875 160.4375 -100.875 158.4375 C-101.12668228 155.65135956 -101.12668228 155.65135956 -101.12896729 152.02233887 C-101.13208727 151.35642211 -101.13520725 150.69050536 -101.13842177 150.00440931 C-101.14642883 147.76261636 -101.14006776 145.52109207 -101.13378906 143.27929688 C-101.13649773 141.67635438 -101.14005796 140.07341312 -101.14440918 138.47047424 C-101.15355027 134.10899636 -101.14998187 129.74761279 -101.14365101 125.38613319 C-101.13859989 120.82931889 -101.14327998 116.27251285 -101.14642334 111.71569824 C-101.15006559 104.06224106 -101.14525712 96.40882243 -101.13574219 88.75537109 C-101.12485714 79.89736514 -101.12838254 71.03945123 -101.139395 62.18144751 C-101.14846053 54.5865263 -101.14975676 46.99163287 -101.14451766 39.39670801 C-101.14139391 34.85604499 -101.14099969 30.31542528 -101.14759064 25.77476501 C-101.15335282 21.50665397 -101.14938799 17.23866202 -101.13780212 12.97056389 C-101.13514948 11.40077347 -101.13593088 9.8309731 -101.14032745 8.2611866 C-101.14576069 6.12487447 -101.13897631 3.9889484 -101.12896729 1.85266113 C-101.12821323 0.6550843 -101.12745918 -0.54249252 -101.12668228 -1.77635956 C-100.875 -4.5625 -100.875 -4.5625 -98.875 -6.5625 C-89.94495976 -7.97531234 -78.65721332 -9.16616795 -69.875 -6.5625 C-69.545 -3.9225 -69.215 -1.2825 -68.875 1.4375 C-68.10929687 0.76654297 -68.10929687 0.76654297 -67.328125 0.08203125 C-47.05106155 -16.77956939 -20.96022747 -14.47676728 0 0 Z M-62.25 28.5625 C-69.98959864 38.10382707 -71.04674019 48.57661975 -69.875 60.4375 C-67.93573392 69.32761866 -63.63439685 77.16302448 -56 82.3125 C-48.59610722 86.48509232 -40.38982978 87.80648454 -32.10546875 85.75 C-23.41360726 82.89631087 -17.31804872 78.55755456 -12.875 70.4375 C-7.96722473 59.99361836 -7.41032342 50.07053494 -10.84375 39.0390625 C-14.09850869 30.828194 -18.99236988 25.44450364 -26.875 21.4375 C-39.80694866 16.25757581 -52.6354857 18.73628997 -62.25 28.5625 Z " fill="#161616" transform="translate(102.875,29.5625)"/>
<path d="M0 0 C14.63403028 -0.75303758 30.30251213 3.50676649 41.29296875 13.26171875 C54.1574073 26.57879495 54.26960267 43.18614877 54.16015625 60.55078125 C54.15641875 62.3062575 54.15357527 64.06173587 54.15158081 65.81721497 C54.14400231 70.4022107 54.12440459 74.98707652 54.10217285 79.57202148 C54.08158873 84.26479333 54.07255241 88.95758649 54.0625 93.65039062 C54.04115235 102.83208783 54.00708762 112.0136893 53.96484375 121.1953125 C49.64208808 123.11454312 46.29522738 124.57484738 41.5390625 124.55859375 C40.57806641 124.55794922 39.61707031 124.55730469 38.62695312 124.55664062 C37.64533203 124.54052734 36.66371094 124.52441406 35.65234375 124.5078125 C34.65138672 124.51103516 33.65042969 124.51425781 32.61914062 124.51757812 C25.23224384 124.46271259 25.23224384 124.46271259 22.96484375 122.1953125 C22.55078125 120.03125 22.55078125 120.03125 22.33984375 117.5703125 C22.26507812 116.75304687 22.1903125 115.93578125 22.11328125 115.09375 C22.03980469 114.15402344 22.03980469 114.15402344 21.96484375 113.1953125 C21.28679687 113.72640625 20.60875 114.2575 19.91015625 114.8046875 C5.8266744 125.49408924 -6.77264343 127.19019808 -24.03515625 126.1953125 C-35.37478738 124.56065512 -44.81451597 119.06591809 -52.03515625 110.1953125 C-57.76701442 101.06741119 -58.30189095 90.72160245 -57.03515625 80.1953125 C-53.93894461 69.98887199 -47.78737978 63.04380593 -38.59765625 57.9453125 C-31.328452 54.5661633 -23.90361682 53.2697773 -16.03515625 52.1953125 C-14.62387451 52.00026123 -14.62387451 52.00026123 -13.18408203 51.80126953 C-1.83303709 50.25909684 9.52310882 48.84337952 20.96484375 48.1953125 C20.71554802 41.88813064 20.44301561 37.00934725 15.96484375 32.1953125 C9.63926186 27.53035432 3.42570396 25.59760641 -4.390625 26.453125 C-9.35111896 27.36711886 -13.1945001 28.80124427 -17.03515625 32.1953125 C-17.53819358 33.5827219 -18.01577275 34.97952748 -18.47265625 36.3828125 C-19.40625 38.48828125 -19.40625 38.48828125 -21.03515625 40.1953125 C-26.03617931 41.36366029 -30.93189235 41.2653573 -36.03515625 41.1953125 C-37.205625 41.21851563 -38.37609375 41.24171875 -39.58203125 41.265625 C-47.42262725 41.39948883 -47.42262725 41.39948883 -51.03515625 40.1953125 C-51.70182057 31.02867817 -48.43950959 24.24439405 -42.796875 17.109375 C-31.21466943 4.52560398 -16.41459363 1.57529689 0 0 Z M-21.68359375 79.55078125 C-24.19091904 82.6016019 -24.15655763 86.36442446 -24.03515625 90.1953125 C-22.93437344 93.08773877 -22.93437344 93.08773877 -21.03515625 95.1953125 C-20.60203125 95.7521875 -20.16890625 96.3090625 -19.72265625 96.8828125 C-14.35332898 101.05895593 -7.5028414 100.77657379 -1.03515625 100.1953125 C7.09213277 98.4835472 14.43390707 93.08873714 18.99609375 86.19921875 C20.81857717 82.42932362 21.64524887 78.35765528 21.96484375 74.1953125 C21.46984375 73.2053125 21.46984375 73.2053125 20.96484375 72.1953125 C-1.61719953 71.01921749 -1.61719953 71.01921749 -21.68359375 79.55078125 Z " fill="#161616" transform="translate(627.03515625,18.8046875)"/>
<path d="M0 0 C8.70878598 8.28281275 13.42895289 19.21800402 13.8046875 31.18359375 C13.83770966 31.97076279 13.87073181 32.75793182 13.90475464 33.56895447 C14.36088437 46.29340862 14.27463932 59.04059752 14.25537109 71.77172852 C14.24958609 75.59923413 14.2530232 79.42667095 14.25894356 83.25417423 C14.26254452 86.22147652 14.26141426 89.18876222 14.25881577 92.15606499 C14.25814973 93.56949306 14.2589636 94.98292265 14.26129532 96.39634895 C14.26382357 98.3528554 14.25928956 100.30936718 14.25439453 102.26586914 C14.25359894 103.37660294 14.25280334 104.48733673 14.25198364 105.63172913 C14.125 108.25 14.125 108.25 13.125 110.25 C7.47712639 112.91783979 1.55035574 112.61737323 -4.5625 112.625 C-6.12967773 112.66173828 -6.12967773 112.66173828 -7.72851562 112.69921875 C-8.72947266 112.70308594 -9.73042969 112.70695312 -10.76171875 112.7109375 C-11.67139404 112.71915527 -12.58106934 112.72737305 -13.51831055 112.73583984 C-15.875 112.25 -15.875 112.25 -17.49923706 110.65692139 C-19.36165913 107.39858131 -19.2467605 104.99898038 -19.24389648 101.25341797 C-19.2495462 100.20862022 -19.2495462 100.20862022 -19.25531006 99.14271545 C-19.26173514 97.63296731 -19.26141939 96.12317871 -19.25512505 94.61343002 C-19.24599301 92.2157381 -19.25626472 89.81882477 -19.27174377 87.4211731 C-19.31176807 80.60533861 -19.31305733 73.7895653 -19.31079102 66.97363281 C-19.31073961 62.79967979 -19.33006213 58.62614339 -19.36012459 54.45230484 C-19.3708649 52.10470889 -19.35886658 49.75793834 -19.34629822 47.41036987 C-19.36825541 38.35196902 -19.64755099 29.58584514 -26.3125 22.75 C-33.14863955 18.74835734 -39.6342538 18.20348594 -47.37890625 19.75 C-53.57867996 21.59629471 -58.07861147 24.29536723 -61.51600647 29.94906616 C-63.09705779 33.78936832 -63.24694783 36.6058434 -63.24389648 40.75244141 C-63.24766296 41.47841019 -63.25142944 42.20437897 -63.25531006 42.9523468 C-63.26171575 44.51882261 -63.26143776 46.08533732 -63.25512505 47.65181351 C-63.24598146 50.13202019 -63.2562737 52.61147634 -63.27174377 55.09164429 C-63.31176445 62.13921016 -63.31304107 69.18671436 -63.31079102 76.234375 C-63.31073995 80.55324722 -63.32988435 84.87171127 -63.36012459 89.19047165 C-63.37095382 91.63250762 -63.3588207 94.07376655 -63.34629822 96.51577759 C-63.35520098 98.01264213 -63.36527478 99.50950031 -63.37670898 101.00634766 C-63.37654282 102.31173492 -63.37637665 103.61712219 -63.37620544 104.96206665 C-63.9560782 108.78444792 -64.8082719 109.97239034 -67.875 112.25 C-70.36108398 112.73583984 -70.36108398 112.73583984 -73.12109375 112.7109375 C-74.12333984 112.70707031 -75.12558594 112.70320313 -76.15820312 112.69921875 C-77.19912109 112.67472656 -78.24003906 112.65023437 -79.3125 112.625 C-80.86807617 112.62306641 -80.86807617 112.62306641 -82.45507812 112.62109375 C-91.65735046 112.5147091 -91.65735046 112.5147091 -95.875 110.25 C-97.73296485 107.3061282 -98.12817464 105.0233017 -98.14242554 101.57518005 C-98.15095551 100.64004578 -98.15948547 99.7049115 -98.16827393 98.74143982 C-98.16736755 97.72260208 -98.16646118 96.70376434 -98.16552734 95.65405273 C-98.17224457 94.57564117 -98.17896179 93.49722961 -98.18588257 92.38613892 C-98.20489376 88.81857713 -98.20878794 85.25120305 -98.2109375 81.68359375 C-98.21736168 79.20784934 -98.22408975 76.73210571 -98.23110962 74.25636292 C-98.2430891 69.06713092 -98.24678959 63.87796555 -98.24560547 58.6887207 C-98.24540189 52.0279143 -98.27274167 45.36768119 -98.30714989 38.706954 C-98.32934351 33.59497602 -98.33344538 28.48310164 -98.33238602 23.3710804 C-98.3347519 20.91459751 -98.34363047 18.45811219 -98.35905075 16.00167656 C-98.37856411 12.57299514 -98.37293067 9.14524799 -98.36083984 5.71655273 C-98.37207886 4.69569077 -98.38331787 3.6748288 -98.39489746 2.62303162 C-98.38650848 1.69071716 -98.37811951 0.75840271 -98.36947632 -0.2021637 C-98.37056585 -1.01275521 -98.37165539 -1.82334673 -98.37277794 -2.65850163 C-97.875 -4.75 -97.875 -4.75 -96.01059914 -6.50225735 C-91.76593075 -8.98224233 -86.68240563 -8.56054559 -81.875 -8.75 C-80.49054687 -8.811875 -80.49054687 -8.811875 -79.078125 -8.875 C-74.24914597 -8.99206616 -70.40424149 -8.65704905 -65.875 -6.75 C-64.75 0 -64.75 0 -65.875 2.25 C-65.215 2.25 -64.555 2.25 -63.875 2.25 C-63.545 1.26 -63.215 0.27 -62.875 -0.75 C-43.89427146 -15.39562388 -18.38453246 -15.06129193 0 0 Z " fill="#161615" transform="translate(799.875,30.75)"/>
<path d="M0 0 C0.086985 3.77068832 0.14038579 7.54111932 0.1875 11.3125 C0.21263672 12.38435547 0.23777344 13.45621094 0.26367188 14.56054688 C0.27333984 15.58857422 0.28300781 16.61660156 0.29296875 17.67578125 C0.3086792 18.62364502 0.32438965 19.57150879 0.34057617 20.5480957 C0 23 0 23 -1.31469727 24.75708008 C-3.96289025 26.71013679 -7.00978444 27.45224294 -10.125 28.375 C-20.71023527 31.70654213 -30.22363575 36.04075129 -36 46 C-37.73881626 50.39540631 -38.25398253 54.06941211 -38.27124023 58.78393555 C-38.27908035 59.75825531 -38.27908035 59.75825531 -38.28707886 60.7522583 C-38.29726109 62.15175165 -38.3030891 63.55128225 -38.30496025 64.95081139 C-38.30864245 67.16601939 -38.32541555 69.38078713 -38.34571838 71.59590149 C-38.40097755 77.88977901 -38.43189452 84.18371819 -38.45629883 90.4777832 C-38.47215724 94.33628534 -38.50234629 98.19446808 -38.54106331 102.05280495 C-38.55271678 103.52119374 -38.55864369 104.98963954 -38.55874443 106.45807457 C-38.55893613 108.50714007 -38.57717086 110.55531991 -38.59936523 112.60424805 C-38.60697121 114.35248116 -38.60697121 114.35248116 -38.61473083 116.1360321 C-39 119 -39 119 -40.33753967 120.8372345 C-45.14169142 124.19737599 -51.40341357 123.22390869 -57 123.25 C-58.10601562 123.270625 -59.21203125 123.29125 -60.3515625 123.3125 C-61.41117188 123.31765625 -62.47078125 123.3228125 -63.5625 123.328125 C-64.53316406 123.3374707 -65.50382813 123.34681641 -66.50390625 123.35644531 C-69.49957775 122.92865967 -70.17495368 122.36030099 -72 120 C-72.38031673 117.8588562 -72.38031673 117.8588562 -72.38768005 115.33154297 C-72.39758469 114.37254089 -72.40748932 113.41353882 -72.41769409 112.42547607 C-72.41319244 111.37499084 -72.4086908 110.32450562 -72.40405273 109.2421875 C-72.41091599 108.13466125 -72.41777924 107.02713501 -72.42485046 105.88604736 C-72.44319112 102.2155688 -72.43927079 98.54551466 -72.43359375 94.875 C-72.43815176 92.33056498 -72.44345618 89.7861312 -72.44947815 87.24169922 C-72.45842336 81.90521672 -72.45620248 76.56888979 -72.44604492 71.23242188 C-72.434559 65.06166665 -72.44864554 58.8913458 -72.4754414 52.72064781 C-72.50024864 46.78592642 -72.50278033 40.85134036 -72.49632454 34.91656494 C-72.49617077 32.39031247 -72.50226079 29.86405185 -72.51461601 27.33782959 C-72.52943534 23.81082501 -72.51891506 20.28478612 -72.50170898 16.7578125 C-72.51137695 15.70732727 -72.52104492 14.65684204 -72.53100586 13.57452393 C-72.52117172 12.61552185 -72.51133759 11.65651978 -72.50120544 10.66845703 C-72.50099616 9.83444366 -72.50078688 9.0004303 -72.50057125 8.1411438 C-72 6 -72 6 -70.14665318 4.24020386 C-65.65759822 1.64670467 -60.0666309 2.18278713 -55 2 C-53.97003906 1.95875 -52.94007813 1.9175 -51.87890625 1.875 C-46.98544197 1.76876468 -43.52065343 1.95763336 -39 4 C-38.505 7.465 -38.505 7.465 -38 11 C-37.46632812 10.46890625 -36.93265625 9.9378125 -36.3828125 9.390625 C-27.4231898 0.89603462 -12.13954982 -6.6767524 0 0 Z " fill="#161615" transform="translate(215,20)"/>
<path d="M0 0 C0.99773437 0.02320312 1.99546875 0.04640625 3.0234375 0.0703125 C4.52777344 0.09738281 4.52777344 0.09738281 6.0625 0.125 C6.83335937 0.14820312 7.60421875 0.17140625 8.3984375 0.1953125 C8.3984375 0.5253125 8.3984375 0.8553125 8.3984375 1.1953125 C4.7684375 1.5253125 1.1384375 1.8553125 -2.6015625 2.1953125 C-2.2715625 39.8153125 -1.9415625 77.4353125 -1.6015625 116.1953125 C1.00794986 117.50006868 2.92545035 117.30832822 5.84375 117.29296875 C6.92011719 117.28974609 7.99648438 117.28652344 9.10546875 117.28320312 C10.79736328 117.27063477 10.79736328 117.27063477 12.5234375 117.2578125 C13.65910156 117.25330078 14.79476563 117.24878906 15.96484375 117.24414062 C18.77609388 117.23232865 21.5872398 117.21585757 24.3984375 117.1953125 C24.40208313 116.28822037 24.40572876 115.38112823 24.40948486 114.44654846 C24.44745827 105.86962346 24.50441679 97.29307508 24.58234024 88.71641636 C24.62173531 84.30775597 24.65396263 79.89929292 24.66943359 75.49047852 C24.68465303 71.23028259 24.71919125 66.97062952 24.76674652 62.71067619 C24.78150609 61.09095941 24.78947538 59.47116511 24.79032135 57.8513813 C24.80737647 41.56008829 24.80737647 41.56008829 29.3984375 34.1953125 C29.9759375 33.2671875 30.5534375 32.3390625 31.1484375 31.3828125 C36.11829349 26.55100806 42.26337635 24.40785902 49.0859375 23.9453125 C55.37821254 24.06270569 60.54477879 25.54313843 65.2734375 29.7578125 C71.62165655 38.76698962 70.86988564 50.06751956 70.91015625 60.578125 C70.92702961 62.24536437 70.94518336 63.91259123 70.96455383 65.57980347 C71.01177192 69.93619881 71.04176267 74.29254338 71.06799316 78.64910889 C71.09794208 83.10732035 71.14442265 87.56535737 71.18945312 92.0234375 C71.27516491 100.74730954 71.34265182 109.47119797 71.3984375 118.1953125 C75.71122135 118.05719328 80.02357703 117.90853141 84.3359375 117.7578125 C85.56763672 117.71849609 86.79933594 117.67917969 88.06835938 117.63867188 C89.23818359 117.59677734 90.40800781 117.55488281 91.61328125 117.51171875 C92.69730225 117.47506104 93.78132324 117.43840332 94.89819336 117.40063477 C97.3377005 117.47166985 97.3377005 117.47166985 98.3984375 116.1953125 C98.49681431 113.83435332 98.53145895 111.50183755 98.52441406 109.14038086 C98.5262822 108.40206024 98.52815033 107.66373962 98.53007507 106.90304565 C98.53408927 105.29337349 98.53615484 103.6836956 98.53653717 102.07401848 C98.53994561 98.64731827 98.56130639 95.22080899 98.58176804 91.79417515 C98.6197973 85.41004136 98.65105994 79.02610556 98.64892578 72.6418457 C98.64813636 68.2054089 98.67160705 63.76966278 98.7108078 59.33340645 C98.72124115 57.64586051 98.7228115 55.95823458 98.71515656 54.27067375 C98.64564662 37.23720508 98.64564662 37.23720508 104.3984375 31.1953125 C104.85107971 30.70123398 105.30372192 30.20715546 105.77008057 29.69810486 C110.47015343 25.20374853 115.62509016 24.44743499 121.8359375 23.8828125 C129.70843547 24.5733825 134.64122371 26.69624769 139.98828125 32.57421875 C144.69809464 41.32847023 143.74040305 52.24974509 143.8125 61.921875 C143.83124393 63.5218502 143.85081965 65.12181586 143.8711853 66.72177124 C143.92217234 70.90059742 143.96197527 75.07945554 143.99932861 79.25842285 C144.03957975 83.53564129 144.09057498 87.81273074 144.140625 92.08984375 C144.23698769 100.45825104 144.3205223 108.8267131 144.3984375 117.1953125 C153.6384375 117.1953125 162.8784375 117.1953125 172.3984375 117.1953125 C172.7284375 116.2053125 173.0584375 115.2153125 173.3984375 114.1953125 C173.7284375 115.5153125 174.0584375 116.8353125 174.3984375 118.1953125 C171.07115623 120.18732929 168.53072416 120.45225841 164.6796875 120.4609375 C163.58269531 120.46351563 162.48570312 120.46609375 161.35546875 120.46875 C159.64423828 120.45714844 159.64423828 120.45714844 157.8984375 120.4453125 C156.75761719 120.45304687 155.61679687 120.46078125 154.44140625 120.46875 C153.34441406 120.46617187 152.24742187 120.46359375 151.1171875 120.4609375 C150.11623047 120.45868164 149.11527344 120.45642578 148.08398438 120.45410156 C145.33590172 120.18928632 143.79633883 119.48293231 141.3984375 118.1953125 C141.39035065 117.28599976 141.38226379 116.37668701 141.37393188 115.43981934 C141.29581801 106.84796391 141.20847713 98.2562616 141.11091042 89.66460419 C141.06107857 85.2481141 141.0147479 80.83164642 140.9765625 76.41503906 C140.93954339 72.14850557 140.89313947 67.88216573 140.84037399 63.61579895 C140.82191802 61.99245113 140.806778 60.36906193 140.79509354 58.74565125 C140.77807937 56.46239618 140.74901023 54.1795762 140.71728516 51.89648438 C140.69729965 49.95122864 140.69729965 49.95122864 140.6769104 47.9666748 C140.1804878 41.24361679 138.82304228 35.4802571 134.3984375 30.1953125 C129.1705468 26.37002663 123.61416766 26.57460158 117.3984375 27.1953125 C112.4942108 28.10210326 108.72826456 29.37076828 105.3984375 33.1953125 C102.38660963 37.7130543 102.2526439 41.29198867 102.2565918 46.54077148 C102.25138016 47.65832825 102.25138016 47.65832825 102.24606323 48.79846191 C102.23871399 50.41574292 102.23336417 52.03303396 102.22977257 53.65032768 C102.22260439 56.20992589 102.2069362 58.76933271 102.18843079 61.32887268 C102.13597068 68.60602227 102.087964 75.88306566 102.07250977 83.16040039 C102.06243624 87.6120266 102.03313107 92.06316928 101.99118996 96.51460457 C101.97886881 98.2110332 101.97376074 99.90753008 101.97598839 101.604002 C101.97833781 103.97668077 101.95620569 106.34796811 101.9284668 108.72045898 C101.93836891 109.77182793 101.93836891 109.77182793 101.94847107 110.84443665 C101.88400907 114.20026179 101.59867997 115.93368187 99.53414917 118.63113403 C96.76204132 120.66140407 95.0605983 120.69769031 91.64453125 120.69140625 C89.99227539 120.69237305 89.99227539 120.69237305 88.30664062 120.69335938 C87.16130859 120.67337891 86.01597656 120.65339844 84.8359375 120.6328125 C83.68673828 120.63990234 82.53753906 120.64699219 81.35351562 120.65429688 C72.90189846 120.58993189 72.90189846 120.58993189 70.60961914 118.79321289 C68.10268272 115.48583557 68.29219822 113.12669173 68.33251953 109.02416992 C68.34227814 107.72489059 68.35203674 106.42561127 68.36209106 105.08695984 C68.36945408 104.3893775 68.37681709 103.69179516 68.38440323 102.97307396 C68.40645076 100.78081876 68.42051799 98.58865061 68.43209839 96.39631653 C68.46563772 90.16130656 68.5066822 83.92643668 68.56982422 77.69165039 C68.60788132 73.87678206 68.63062415 70.06206474 68.64413071 66.24703407 C68.65209593 64.80358006 68.66557479 63.36014399 68.68506241 61.91679955 C68.82825515 51.1066774 68.85687364 39.37249713 62.3984375 30.1953125 C56.05852104 26.36494631 49.31876771 26.25689901 42.125 27.62890625 C36.83639472 29.26006612 33.17753087 32.41597995 30.3984375 37.1953125 C28.75226158 42.09913068 28.16886897 46.26755202 28.25073242 51.42822266 C28.26234154 52.456464 28.26234154 52.456464 28.27418518 53.50547791 C28.29172255 54.98087888 28.3137244 56.4562324 28.3398037 57.93150711 C28.37949423 60.26900276 28.40368381 62.60619454 28.42341614 64.94393921 C28.48122831 71.58570191 28.55885051 78.22700477 28.66577148 84.86816406 C28.73026401 88.94161231 28.77027998 93.0146984 28.79494667 97.08857346 C28.80918217 98.63640068 28.8327592 100.18417189 28.86595726 101.73170853 C28.91175764 103.89532876 28.92644902 106.05714731 28.93432617 108.22119141 C28.95146164 109.45028229 28.96859711 110.67937317 28.98625183 111.94570923 C28.2317572 116.11676818 26.65995417 117.581159 23.3984375 120.1953125 C20.890625 120.81054688 20.890625 120.81054688 18.2734375 120.7890625 C17.31953125 120.78648437 16.365625 120.78390625 15.3828125 120.78125 C14.39796875 120.75289063 13.413125 120.72453125 12.3984375 120.6953125 C10.92117188 120.69917969 10.92117188 120.69917969 9.4140625 120.703125 C3.78261366 120.62702434 -0.41991214 120.37696286 -4.6015625 116.1953125 C-4.70157175 114.7198004 -4.73231477 113.23952991 -4.73527527 111.76063538 C-4.73954025 110.80293747 -4.74380524 109.84523956 -4.74819946 108.85852051 C-4.74774628 107.79927368 -4.74729309 106.74002686 -4.74682617 105.64868164 C-4.75018478 104.53984116 -4.7535434 103.43100067 -4.75700378 102.28855896 C-4.7665466 98.60251767 -4.76845854 94.91652164 -4.76953125 91.23046875 C-4.77274144 88.68078085 -4.77610532 86.13109314 -4.77961731 83.58140564 C-4.78561688 78.22882587 -4.78749902 72.87626313 -4.78686523 67.52368164 C-4.78626429 61.33035427 -4.79681775 55.13711395 -4.8126089 48.94380862 C-4.82724032 42.99416231 -4.83085385 37.04454272 -4.83025551 31.09487724 C-4.83143973 28.55942873 -4.83588603 26.02397965 -4.84358788 23.48854256 C-4.85333188 19.94939983 -4.85053191 16.41048389 -4.84448242 12.87133789 C-4.85010193 11.8141153 -4.85572144 10.7568927 -4.86151123 9.66763306 C-4.85731674 8.70711533 -4.85312225 7.7465976 -4.84880066 6.75697327 C-4.84934543 5.91944047 -4.84989019 5.08190767 -4.85045147 4.21899509 C-4.44355883 0.91060598 -3.21340583 0.24124668 0 0 Z " fill="#050404" transform="translate(380.6015625,22.8046875)"/>
<path d="M0 0 C9.02035638 7.38981103 14.46242187 17.47868705 15.98779297 29.01733398 C16.0608762 30.3819024 16.11726681 31.74743037 16.16015625 33.11328125 C16.19317841 33.90045029 16.22620056 34.68761932 16.26022339 35.49864197 C16.71635312 48.22309612 16.63010807 60.97028502 16.61083984 73.70141602 C16.60505484 77.52892163 16.60849195 81.35635845 16.61441231 85.18386173 C16.61801327 88.15116402 16.61688301 91.11844972 16.61428452 94.08575249 C16.61361848 95.49918056 16.61443235 96.91261015 16.61676407 98.32603645 C16.61929232 100.2825429 16.61475831 102.23905468 16.60986328 104.19555664 C16.60906769 105.30629044 16.60827209 106.41702423 16.60745239 107.56141663 C16.48046875 110.1796875 16.48046875 110.1796875 15.48046875 112.1796875 C9.83259514 114.84752729 3.90582449 114.54706073 -2.20703125 114.5546875 C-3.77420898 114.59142578 -3.77420898 114.59142578 -5.37304688 114.62890625 C-6.37400391 114.63277344 -7.37496094 114.63664062 -8.40625 114.640625 C-9.31592529 114.64884277 -10.22560059 114.65706055 -11.1628418 114.66552734 C-13.51953125 114.1796875 -13.51953125 114.1796875 -15.14376831 112.58660889 C-17.00619038 109.32826881 -16.89129175 106.92866788 -16.88842773 103.18310547 C-16.89407745 102.13830772 -16.89407745 102.13830772 -16.89984131 101.07240295 C-16.90626639 99.56265481 -16.90595064 98.05286621 -16.8996563 96.54311752 C-16.89052426 94.1454256 -16.90079597 91.74851227 -16.91627502 89.3508606 C-16.95629932 82.53502611 -16.95758858 75.7192528 -16.95532227 68.90332031 C-16.95527086 64.72936729 -16.97459338 60.55583089 -17.00465584 56.38199234 C-17.01539615 54.03439639 -17.00339783 51.68762584 -16.99082947 49.34005737 C-17.01278666 40.28165652 -17.29208224 31.51553264 -23.95703125 24.6796875 C-30.7931708 20.67804484 -37.27878505 20.13317344 -45.0234375 21.6796875 C-51.22321121 23.52598221 -55.72314272 26.22505473 -59.16053772 31.87875366 C-60.74158904 35.71905582 -60.89147908 38.5355309 -60.88842773 42.68212891 C-60.89219421 43.40809769 -60.89596069 44.13406647 -60.89984131 44.8820343 C-60.906247 46.44851011 -60.90596901 48.01502482 -60.8996563 49.58150101 C-60.89051271 52.06170769 -60.90080495 54.54116384 -60.91627502 57.02133179 C-60.9562957 64.06889766 -60.95757232 71.11640186 -60.95532227 78.1640625 C-60.9552712 82.48293472 -60.9744156 86.80139877 -61.00465584 91.12015915 C-61.01548507 93.56219512 -61.00335195 96.00345405 -60.99082947 98.44546509 C-60.99973223 99.94232963 -61.00980603 101.43918781 -61.02124023 102.93603516 C-61.02107407 104.24142242 -61.0209079 105.54680969 -61.02073669 106.89175415 C-61.60060945 110.71413542 -62.45280315 111.90207784 -65.51953125 114.1796875 C-68.00561523 114.66552734 -68.00561523 114.66552734 -70.765625 114.640625 C-71.76787109 114.63675781 -72.77011719 114.63289063 -73.80273438 114.62890625 C-74.84365234 114.60441406 -75.88457031 114.57992187 -76.95703125 114.5546875 C-78.51260742 114.55275391 -78.51260742 114.55275391 -80.09960938 114.55078125 C-89.30188171 114.4443966 -89.30188171 114.4443966 -93.51953125 112.1796875 C-95.3774961 109.2358157 -95.77270589 106.9529892 -95.78695679 103.50486755 C-95.79548676 102.56973328 -95.80401672 101.634599 -95.81280518 100.67112732 C-95.8118988 99.65228958 -95.81099243 98.63345184 -95.81005859 97.58374023 C-95.81677582 96.50532867 -95.82349304 95.42691711 -95.83041382 94.31582642 C-95.84942501 90.74826463 -95.85331919 87.18089055 -95.85546875 83.61328125 C-95.86189293 81.13753684 -95.868621 78.66179321 -95.87564087 76.18605042 C-95.88762035 70.99681842 -95.89132084 65.80765305 -95.89013672 60.6184082 C-95.88993314 53.9576018 -95.91727292 47.29736869 -95.95168114 40.6366415 C-95.97387476 35.52466352 -95.97797663 30.41278914 -95.97691727 25.3007679 C-95.97928315 22.84428501 -95.98816172 20.38779969 -96.003582 17.93136406 C-96.02309536 14.50268264 -96.01746192 11.07493549 -96.00537109 7.64624023 C-96.01661011 6.62537827 -96.02784912 5.6045163 -96.03942871 4.55271912 C-96.03103973 3.62040466 -96.02265076 2.68809021 -96.01400757 1.7275238 C-96.0150971 0.91693229 -96.01618664 0.10634077 -96.01730919 -0.72881413 C-95.51953125 -2.8203125 -95.51953125 -2.8203125 -93.65513039 -4.57256985 C-89.410462 -7.05255483 -84.32693688 -6.63085809 -79.51953125 -6.8203125 C-78.13507812 -6.8821875 -78.13507812 -6.8821875 -76.72265625 -6.9453125 C-71.89367722 -7.06237866 -68.04877274 -6.72736155 -63.51953125 -4.8203125 C-62.39453125 1.9296875 -62.39453125 1.9296875 -63.51953125 4.1796875 C-62.85953125 4.1796875 -62.19953125 4.1796875 -61.51953125 4.1796875 C-61.18953125 3.1896875 -60.85953125 2.1996875 -60.51953125 1.1796875 C-55.40526927 -2.58252821 -49.53316293 -5.77567773 -43.51953125 -7.8203125 C-41.32421875 -7.38671875 -41.32421875 -7.38671875 -39.51953125 -6.8203125 C-40.44894531 -6.45679688 -41.37835937 -6.09328125 -42.3359375 -5.71875 C-50.52847998 -2.51702433 -50.52847998 -2.51702433 -57.64453125 2.5546875 C-60.51953125 5.1796875 -60.51953125 5.1796875 -64.51953125 5.1796875 C-64.84953125 2.2096875 -65.17953125 -0.7603125 -65.51953125 -3.8203125 C-69.62368314 -3.84929347 -73.72780878 -3.8671047 -77.83203125 -3.8828125 C-78.99927734 -3.89119141 -80.16652344 -3.89957031 -81.36914062 -3.90820312 C-82.48740234 -3.91142578 -83.60566406 -3.91464844 -84.7578125 -3.91796875 C-85.78946533 -3.92320557 -86.82111816 -3.92844238 -87.8840332 -3.93383789 C-90.62899399 -3.9366625 -90.62899399 -3.9366625 -93.51953125 -2.8203125 C-93.45903184 11.60060537 -93.3813595 26.02134266 -93.28381634 40.44205952 C-93.23903023 47.13771383 -93.19942307 53.83329923 -93.1730957 60.52905273 C-93.14714497 66.98711422 -93.10680106 73.4449381 -93.05634499 79.90285301 C-93.03962047 82.37045531 -93.02814112 84.83809876 -93.02191734 87.30574989 C-93.01233701 90.75397459 -92.98435012 94.20158368 -92.9519043 97.6496582 C-92.95333939 98.67680435 -92.95477448 99.7039505 -92.95625305 100.76222229 C-92.9437149 101.70031738 -92.93117676 102.63841248 -92.91825867 103.60493469 C-92.9136497 104.42072148 -92.90904074 105.23650827 -92.90429211 106.07701588 C-92.42471893 108.6978254 -91.62773317 109.59144528 -89.51953125 111.1796875 C-86.81008405 111.59379183 -86.81008405 111.59379183 -83.7578125 111.47265625 C-82.08041992 111.4581543 -82.08041992 111.4581543 -80.36914062 111.44335938 C-79.20189453 111.41822266 -78.03464844 111.39308594 -76.83203125 111.3671875 C-75.06375977 111.34688477 -75.06375977 111.34688477 -73.25976562 111.32617188 C-70.34589714 111.29078076 -67.4329418 111.24140559 -64.51953125 111.1796875 C-64.5284137 110.29765152 -64.53729614 109.41561554 -64.54644775 108.5068512 C-64.62683189 100.16565485 -64.68761627 91.82458993 -64.72677994 83.48309422 C-64.74759183 79.19534751 -64.77579117 74.90792278 -64.82128906 70.62036133 C-64.86497695 66.47710474 -64.8887164 62.33415646 -64.89904022 58.19068718 C-64.90639068 56.61553029 -64.92074392 55.04038892 -64.94245148 53.46536446 C-65.10035797 41.52568134 -63.77590299 32.86482102 -55.37890625 23.83984375 C-49.49035532 18.58220899 -41.45105373 17.77800225 -33.8203125 17.90625 C-27.37266785 18.67252356 -22.97391784 22.22675861 -18.84375 27.0078125 C-13.62946506 35.55985505 -14.06222846 44.22636716 -14.04296875 53.89453125 C-14.02864393 55.51739284 -14.01288427 57.14024234 -13.99575806 58.76307678 C-13.95409156 63.01227433 -13.92896487 67.2613968 -13.90826416 71.51074219 C-13.87230148 78.3362982 -13.81159302 85.16166985 -13.74977493 91.98703194 C-13.73065037 94.37188286 -13.71895043 96.75668402 -13.70834351 99.1415863 C-13.698139 100.59170647 -13.68778174 102.04182556 -13.67724609 103.49194336 C-13.67075043 104.76243027 -13.66425476 106.03291718 -13.65756226 107.34190369 C-13.84291155 110.08028002 -13.84291155 110.08028002 -12.51953125 111.1796875 C-10.84741728 111.27906184 -9.17115684 111.31048843 -7.49609375 111.3125 C-5.9646875 111.31443359 -5.9646875 111.31443359 -4.40234375 111.31640625 C-3.32726562 111.31253906 -2.2521875 111.30867188 -1.14453125 111.3046875 C0.45648437 111.31048828 0.45648437 111.31048828 2.08984375 111.31640625 C3.11335937 111.31511719 4.136875 111.31382812 5.19140625 111.3125 C6.13290527 111.31137207 7.0744043 111.31024414 8.04443359 111.30908203 C10.62105914 111.28030319 10.62105914 111.28030319 13.48046875 110.1796875 C13.57364885 99.86046736 13.64447528 89.54134932 13.68771744 79.22179222 C13.70848429 74.42863347 13.73659958 69.63576512 13.78222656 64.84277344 C13.82607722 60.20672425 13.84968755 55.57095223 13.85997772 50.93471146 C13.86729941 49.17668935 13.88159428 47.4186803 13.90338898 45.66077805 C14.07893379 30.89830858 13.1177014 16.57090025 2.48046875 5.1796875 C-9.57354784 -5.49613948 -23.0160707 -6.93820954 -38.51953125 -6.8203125 C-38.18953125 -7.4803125 -37.85953125 -8.1403125 -37.51953125 -8.8203125 C-25.14671788 -12.84922475 -9.88842778 -7.14419744 0 0 Z " fill="#060505" transform="translate(797.51953125,28.8203125)"/>
<path d="M0 0 C2.60119083 2.02892885 4.97284666 3.94100212 7.125 6.4375 C7.125 7.0975 7.125 7.7575 7.125 8.4375 C7.785 8.4375 8.445 8.4375 9.125 8.4375 C10.115 10.9125 10.115 10.9125 11.125 13.4375 C11.785 13.4375 12.445 13.4375 13.125 13.4375 C14.32784401 15.51323081 15.51205701 17.59633095 16.6875 19.6875 C17.02974609 20.27402344 17.37199219 20.86054687 17.72460938 21.46484375 C20.18882218 25.89544859 20.18882218 25.89544859 19.83984375 28.859375 C19.60394531 29.38015625 19.36804688 29.9009375 19.125 30.4375 C18.74730469 29.56609375 18.36960937 28.6946875 17.98046875 27.796875 C10.87934318 12.43050491 0.33585834 0.92498087 -15.6875 -5.4375 C-27.66097381 -9.84187161 -41.20587997 -10.47667957 -53.21875 -5.83984375 C-58.23324426 -3.42846195 -62.69651064 -0.40678929 -66.9375 3.18359375 C-67.576875 3.59738281 -68.21625 4.01117188 -68.875 4.4375 C-69.865 4.1075 -70.855 3.7775 -71.875 3.4375 C-71.875 0.4675 -71.875 -2.5025 -71.875 -5.5625 C-76.18778385 -5.42438078 -80.50013953 -5.27571891 -84.8125 -5.125 C-86.04419922 -5.08568359 -87.27589844 -5.04636719 -88.54492188 -5.00585938 C-89.71474609 -4.96396484 -90.88457031 -4.92207031 -92.08984375 -4.87890625 C-93.71587524 -4.82391968 -93.71587524 -4.82391968 -95.37475586 -4.76782227 C-97.814263 -4.83885735 -97.814263 -4.83885735 -98.875 -3.5625 C-98.97183581 -1.48689194 -98.99686902 0.59207204 -98.99525452 2.66993713 C-98.99653615 3.65739667 -98.99653615 3.65739667 -98.99784368 4.66480488 C-98.9995003 6.88667106 -98.99397418 9.10846295 -98.98852539 11.33032227 C-98.98824353 12.91665648 -98.98840123 14.50299082 -98.9889679 16.08932495 C-98.98925592 20.40938722 -98.98335837 24.72942197 -98.97639394 29.04947782 C-98.97016125 33.55918315 -98.96955667 38.06888905 -98.96836853 42.57859802 C-98.96525496 51.12444374 -98.95704124 59.67027674 -98.94701904 68.21611685 C-98.93585869 77.94267633 -98.93034765 87.66923642 -98.92532361 97.39580071 C-98.91485864 117.40970759 -98.89725871 137.42360299 -98.875 157.4375 C-91.10039747 161.32480126 -81.55973431 159.07563607 -72.875 159.4375 C-72.545 140.6275 -72.215 121.8175 -71.875 102.4375 C-69.895 101.9425 -69.895 101.9425 -67.875 101.4375 C-67.875 102.0975 -67.875 102.7575 -67.875 103.4375 C-67.16988281 103.705625 -66.46476562 103.97375 -65.73828125 104.25 C-62.74537682 105.49125914 -59.93160063 106.93338433 -57.0625 108.4375 C-43.71918401 115.06872371 -30.102357 115.20821894 -15.9921875 110.6328125 C-11.63155324 108.96068959 -7.75131913 107.03871415 -3.875 104.4375 C-3.12734375 103.94636719 -2.3796875 103.45523438 -1.609375 102.94921875 C11.80041375 93.39360398 18.52316988 78.21012058 21.7265625 62.484375 C23.04742521 52.38366017 22.19572359 42.36588008 20.125 32.4375 C20.785 32.4375 21.445 32.4375 22.125 32.4375 C27.64764785 47.53273747 26.17330675 65.04749525 19.56054688 79.5793457 C11.85721399 95.36854 0.59507585 106.85721118 -15.875 113.4375 C-30.80224217 117.97985815 -45.86273012 117.72942289 -59.875 110.4375 C-61.45067131 109.41828457 -63.01594427 108.38287901 -64.57250977 107.3347168 C-65.37930679 106.79268112 -66.18610382 106.25064545 -67.01734924 105.69218445 C-67.93688637 105.07111565 -67.93688637 105.07111565 -68.875 104.4375 C-68.88308685 105.10957489 -68.89117371 105.78164978 -68.89950562 106.47409058 C-68.98535284 113.449233 -69.08484703 120.42408469 -69.19238281 127.39892578 C-69.23074082 130.00434499 -69.26558145 132.6098184 -69.296875 135.21533203 C-69.34237751 138.95364803 -69.40039626 142.69158865 -69.4609375 146.4296875 C-69.47248871 147.60054901 -69.48403992 148.77141052 -69.49594116 149.97775269 C-69.51581085 151.05872223 -69.53568054 152.13969177 -69.55615234 153.25341797 C-69.56947601 154.20828094 -69.58279968 155.16314392 -69.5965271 156.14694214 C-69.875 158.4375 -69.875 158.4375 -71.875 160.4375 C-74.54882813 160.69628906 -74.54882813 160.69628906 -77.90625 160.703125 C-79.10894531 160.70570313 -80.31164062 160.70828125 -81.55078125 160.7109375 C-83.44376953 160.69933594 -83.44376953 160.69933594 -85.375 160.6875 C-86.63699219 160.69523438 -87.89898437 160.70296875 -89.19921875 160.7109375 C-90.40191406 160.70835937 -91.60460937 160.70578125 -92.84375 160.703125 C-93.95169922 160.70086914 -95.05964844 160.69861328 -96.20117188 160.69628906 C-98.875 160.4375 -98.875 160.4375 -100.875 158.4375 C-101.12668228 155.65135956 -101.12668228 155.65135956 -101.12896729 152.02233887 C-101.13208727 151.35642211 -101.13520725 150.69050536 -101.13842177 150.00440931 C-101.14642883 147.76261636 -101.14006776 145.52109207 -101.13378906 143.27929688 C-101.13649773 141.67635438 -101.14005796 140.07341312 -101.14440918 138.47047424 C-101.15355027 134.10899636 -101.14998187 129.74761279 -101.14365101 125.38613319 C-101.13859989 120.82931889 -101.14327998 116.27251285 -101.14642334 111.71569824 C-101.15006559 104.06224106 -101.14525712 96.40882243 -101.13574219 88.75537109 C-101.12485714 79.89736514 -101.12838254 71.03945123 -101.139395 62.18144751 C-101.14846053 54.5865263 -101.14975676 46.99163287 -101.14451766 39.39670801 C-101.14139391 34.85604499 -101.14099969 30.31542528 -101.14759064 25.77476501 C-101.15335282 21.50665397 -101.14938799 17.23866202 -101.13780212 12.97056389 C-101.13514948 11.40077347 -101.13593088 9.8309731 -101.14032745 8.2611866 C-101.14576069 6.12487447 -101.13897631 3.9889484 -101.12896729 1.85266113 C-101.12821323 0.6550843 -101.12745918 -0.54249252 -101.12668228 -1.77635956 C-100.875 -4.5625 -100.875 -4.5625 -98.875 -6.5625 C-89.94495976 -7.97531234 -78.65721332 -9.16616795 -69.875 -6.5625 C-69.545 -3.9225 -69.215 -1.2825 -68.875 1.4375 C-68.10929687 0.76654297 -68.10929687 0.76654297 -67.328125 0.08203125 C-47.05106155 -16.77956939 -20.96022747 -14.47676728 0 0 Z " fill="#040303" transform="translate(102.875,29.5625)"/>
<path d="M0 0 C10.92745881 8.56889239 15.86077295 19.39511137 17.515625 32.97265625 C17.86098346 39.08295061 17.74949285 45.21098076 17.7109375 51.328125 C17.7072 53.08360125 17.70435652 54.83907962 17.70236206 56.59455872 C17.69478356 61.17955445 17.67518584 65.76442027 17.6529541 70.34936523 C17.63236998 75.04213708 17.62333366 79.73493024 17.61328125 84.42773438 C17.5919336 93.60943158 17.55786887 102.79103305 17.515625 111.97265625 C13.19286933 113.89188687 9.84600863 115.35219113 5.08984375 115.3359375 C4.12884766 115.33529297 3.16785156 115.33464844 2.17773438 115.33398438 C1.19611328 115.31787109 0.21449219 115.30175781 -0.796875 115.28515625 C-1.79783203 115.28837891 -2.79878906 115.29160156 -3.83007812 115.29492188 C-11.21697491 115.24005634 -11.21697491 115.24005634 -13.484375 112.97265625 C-13.8984375 110.80859375 -13.8984375 110.80859375 -14.109375 108.34765625 C-14.18414063 107.53039062 -14.25890625 106.713125 -14.3359375 105.87109375 C-14.40941406 104.93136719 -14.40941406 104.93136719 -14.484375 103.97265625 C-15.16242188 104.50375 -15.84046875 105.03484375 -16.5390625 105.58203125 C-30.62254435 116.27143299 -43.22186218 117.96754183 -60.484375 116.97265625 C-71.82400613 115.33799887 -81.26373472 109.84326184 -88.484375 100.97265625 C-94.21623317 91.84475494 -94.7511097 81.4989462 -93.484375 70.97265625 C-90.38816336 60.76621574 -84.23659853 53.82114968 -75.046875 48.72265625 C-65.41945943 44.19353245 -55.05857676 42.76117221 -44.484375 42.97265625 C-48.02687148 45.33432057 -50.14850584 45.38683079 -54.359375 45.78515625 C-66.62710019 47.19774018 -77.11595244 51.43211416 -85.796875 60.34765625 C-91.14105209 68.66082061 -92.35921724 78.30516931 -91.08203125 88.0390625 C-88.97168367 97.01740516 -84.06440032 103.72494641 -76.484375 108.97265625 C-61.97516663 116.43527776 -46.84403955 115.9261296 -31.484375 111.97265625 C-28.61025052 110.89652027 -26.07459198 109.6092304 -23.484375 107.97265625 C-22.370625 107.29203125 -21.256875 106.61140625 -20.109375 105.91015625 C-17.30251324 104.06823606 -17.30251324 104.06823606 -15.484375 100.97265625 C-13.504375 101.46765625 -13.504375 101.46765625 -11.484375 101.97265625 C-11.484375 105.60265625 -11.484375 109.23265625 -11.484375 112.97265625 C-7.71327645 112.83209984 -3.94258731 112.68544639 -0.171875 112.53515625 C0.89998047 112.49583984 1.97183594 112.45652344 3.07617188 112.41601562 C4.10419922 112.37412109 5.13222656 112.33222656 6.19140625 112.2890625 C7.13927002 112.25240479 8.08713379 112.21574707 9.0637207 112.17797852 C11.651796 112.05835438 11.651796 112.05835438 14.515625 110.97265625 C14.58542907 100.61886017 14.63858973 90.26512095 14.67106152 79.91113663 C14.68665384 75.10229371 14.70777325 70.29361292 14.74194336 65.48486328 C14.77476795 60.8358681 14.79252627 56.18702793 14.80025673 51.53792572 C14.80575908 49.77268792 14.81650268 48.00745768 14.83281517 46.24228668 C14.96133243 31.74636958 14.26794842 18.59478604 4.515625 6.97265625 C-7.704774 -4.05850929 -23.47818372 -6.81196097 -39.484375 -6.02734375 C-43.49071833 -5.75184928 -47.4876719 -5.4179465 -51.484375 -5.02734375 C-51.154375 -5.68734375 -50.824375 -6.34734375 -50.484375 -7.02734375 C-34.08306717 -11.40462854 -14.33205607 -9.42793074 0 0 Z " fill="#040404" transform="translate(663.484375,28.02734375)"/>
<path d="M0 0 C3.91882291 2.10328432 6.46541745 4.35302817 9.25 7.8125 C9.93578125 8.64394531 10.6215625 9.47539062 11.328125 10.33203125 C13.24784612 13.39551144 13.89613269 15.38825045 14 19 C12.8203125 21.5625 12.8203125 21.5625 11.125 24 C7.77081628 29.08282975 7.77081628 29.08282975 7 35 C8.78045049 40.95578497 8.78045049 40.95578497 13 45 C14.43566947 45.12692559 15.87371788 45.22786576 17.3125 45.3125 C21.61550724 45.74903697 23.96249631 46.77265233 27 50 C28.48536644 54.45609931 28.30624792 58.83110844 28.375 63.5 C28.43107422 64.94439453 28.43107422 64.94439453 28.48828125 66.41796875 C28.52112507 69.03452611 28.48579781 71.42831688 28 74 C24.96308833 76.89715998 22.01712605 77.33959126 17.9375 77.8125 C14.02291776 78.51049386 13.26377242 78.70325603 10.5 81.8125 C10.005 82.864375 9.51 83.91625 9 85 C8.5875 85.845625 8.175 86.69125 7.75 87.5625 C6.90206635 90.31828436 6.67050464 92.12868331 7 95 C8.7707606 97.29207274 8.7707606 97.29207274 11.0625 99.375 C14.94534201 103.55492779 14.94534201 103.55492779 15.4375 107.5625 C12.3711925 114.89497446 5.99144809 121.21604501 -1 125 C-4.97484446 125.09243824 -7.79679508 123.27596139 -11 121 C-11.474375 120.278125 -11.94875 119.55625 -12.4375 118.8125 C-13.89619075 116.72963079 -13.89619075 116.72963079 -16.625 116.5625 C-23.1527648 117.26051621 -23.1527648 117.26051621 -29 120 C-30.72594715 123.53819167 -31.35343663 127.13678384 -32 131 C-33.38391502 137.51593323 -33.38391502 137.51593323 -35.75 139.375 C-43.31463002 141.47628612 -52.57336606 142.56635801 -60.125 139.875 C-63 138 -63 138 -64.375 135.4375 C-65.18651112 130.97418882 -65.66040802 126.52193533 -66 122 C-66.86625 121.731875 -67.7325 121.46375 -68.625 121.1875 C-77.46067416 118.07865169 -77.46067416 118.07865169 -79 115 C-67.67924528 118.32075472 -67.67924528 118.32075472 -64 122 C-63.19390012 125.07938684 -62.75052028 128.05748917 -62.421875 131.22265625 C-62.16946623 134.20454403 -62.16946623 134.20454403 -60 137 C-59.01 137 -58.02 137 -57 137 C-57 137.66 -57 138.32 -57 139 C-54.43663746 138.88553728 -51.87486555 138.75880499 -49.3125 138.625 C-48.2306543 138.57859375 -48.2306543 138.57859375 -47.12695312 138.53125 C-41.2551027 138.30520704 -41.2551027 138.30520704 -36 136 C-35.09521653 133.36252661 -34.45246497 130.95469741 -33.875 128.25 C-32.72994943 123.82854671 -31.83938618 120.78668353 -28.44921875 117.609375 C-23.55280404 114.87957411 -19.66192086 113.51040573 -14 114 C-11.625 115.875 -11.625 115.875 -10 118 C-10 118.66 -10 119.32 -10 120 C-6.97418122 121.25181628 -4.28850751 121.99006493 -1 122 C5.11688878 119.06777713 9.50542915 114.23642712 12 108 C12.22658561 104.45015872 11.64644599 102.74891295 9.32421875 100.05859375 C8.68097656 99.37925781 8.03773438 98.69992188 7.375 98 C4.02285242 94.36563877 4.02285242 94.36563877 3.8125 91 C8.59005525 78.93038674 8.59005525 78.93038674 14 76 C17.9752628 75.09582258 21.9544315 74.49037194 26 74 C25.86116581 70.56217969 25.71272946 67.12483971 25.5625 63.6875 C25.52318359 62.71103516 25.48386719 61.73457031 25.44335938 60.72851562 C25.40146484 59.79072266 25.35957031 58.85292969 25.31640625 57.88671875 C25.27974854 57.02264404 25.24309082 56.15856934 25.20532227 55.26831055 C25.07252646 52.8352174 25.07252646 52.8352174 24 50 C21.73030385 48.86515193 20.20757139 48.83573949 17.6875 48.6875 C13.3341655 48.21932438 11.00542747 47.35900717 8 44 C5.30411203 39.16599398 3.79615728 34.47694213 5 29 C6.13634542 27.10609096 7.431603 25.44498986 8.796875 23.7109375 C10.89601491 20.72579698 11.19007427 18.61141119 11 15 C8.71685534 10.81022927 5.51781481 7.43981906 2.125 4.125 C1.42375 3.42375 0.7225 2.7225 0 2 C0 1.34 0 0.68 0 0 Z " fill="#050505" transform="translate(337,17)"/>
<path d="M0 0 C7.09281937 4.12429806 12.80129366 8.7258178 16.27734375 16.32421875 C16.27734375 16.98421875 16.27734375 17.64421875 16.27734375 18.32421875 C15.61734375 18.32421875 14.95734375 18.32421875 14.27734375 18.32421875 C13.26953125 16.8203125 13.26953125 16.8203125 12.15234375 14.76171875 C7.35269927 6.90143141 1.34359134 2.50027889 -7.5078125 -0.078125 C-17.06817491 -1.85544632 -25.69101129 -0.10103702 -33.72265625 5.32421875 C-41.0283719 10.68555607 -44.23127416 18.25742372 -46.35546875 26.8984375 C-47.78787817 36.36148273 -45.07840635 45.70199201 -39.44921875 53.35546875 C-33.66805079 59.94756977 -26.78406023 63.5946887 -18.09375 64.640625 C-8.82912412 65.04916469 -1.0030056 62.5718678 6.15234375 56.63671875 C12.86302403 50.14212478 16.5925442 42.67436647 17.27734375 33.32421875 C17.14197843 28.96352172 16.77989872 24.65705751 16.27734375 20.32421875 C18.27734375 21.32421875 18.27734375 21.32421875 18.890625 23.0234375 C20.76086712 34.15043353 18.61640367 44.06300682 12.27734375 53.32421875 C6.51961376 60.41328157 0.60981669 65.3771858 -8.63183594 66.57080078 C-18.79206802 67.52108972 -27.25963051 66.54064942 -35.72265625 60.32421875 C-42.53362292 54.23137706 -48.31267847 46.24537326 -48.9609375 36.8828125 C-49.24670368 26.36456656 -48.33771509 18.36569151 -41.34765625 10.01171875 C-30.08337863 -1.84918374 -15.85947913 -7.52071806 0 0 Z " fill="#060606" transform="translate(302.72265625,47.67578125)"/>
<path d="M0 0 C1.32 0.33 2.64 0.66 4 1 C4.086985 4.77068832 4.14038579 8.54111932 4.1875 12.3125 C4.21263672 13.38435547 4.23777344 14.45621094 4.26367188 15.56054688 C4.27333984 16.58857422 4.28300781 17.61660156 4.29296875 18.67578125 C4.3086792 19.62364502 4.32438965 20.57150879 4.34057617 21.5480957 C4 24 4 24 2.68530273 25.75708008 C0.03710975 27.71013679 -3.00978444 28.45224294 -6.125 29.375 C-16.71023527 32.70654213 -26.22363575 37.04075129 -32 47 C-33.73881626 51.39540631 -34.25398253 55.06941211 -34.27124023 59.78393555 C-34.27646698 60.43348206 -34.28169373 61.08302856 -34.28707886 61.7522583 C-34.29726109 63.15175165 -34.3030891 64.55128225 -34.30496025 65.95081139 C-34.30864245 68.16601939 -34.32541555 70.38078713 -34.34571838 72.59590149 C-34.40097755 78.88977901 -34.43189452 85.18371819 -34.45629883 91.4777832 C-34.47215724 95.33628534 -34.50234629 99.19446808 -34.54106331 103.05280495 C-34.55271678 104.52119374 -34.55864369 105.98963954 -34.55874443 107.45807457 C-34.55893613 109.50714007 -34.57717086 111.55531991 -34.59936523 113.60424805 C-34.60443588 114.76973679 -34.60950653 115.93522552 -34.61473083 117.1360321 C-35 120 -35 120 -36.38832092 121.91926575 C-38 123 -38 123 -40.1875 122.6875 C-40.785625 122.460625 -41.38375 122.23375 -42 122 C-40.02 121.01 -40.02 121.01 -38 120 C-37.99413376 119.20566055 -37.98826752 118.41132111 -37.98222351 117.59291077 C-37.9241134 110.07555756 -37.85193332 102.5585289 -37.76428509 95.04146671 C-37.71972058 91.17764977 -37.68043471 87.31393489 -37.65356445 83.44995117 C-37.62739135 79.71499516 -37.58689254 75.98043488 -37.53681374 72.24572563 C-37.52023901 70.82696932 -37.50866661 69.40814472 -37.50238609 67.9893055 C-37.44636445 56.4878035 -36.54910833 46.93708868 -28.3515625 38.25390625 C-20.88096877 31.16446526 -11.98372908 27.98187167 -2.1171875 25.578125 C-0.03127032 25.19655961 -0.03127032 25.19655961 1 24 C1.15740605 22.29436222 1.25093392 20.58272756 1.31640625 18.87109375 C1.37924805 17.31938477 1.37924805 17.31938477 1.44335938 15.73632812 C1.48267578 14.64771484 1.52199219 13.55910156 1.5625 12.4375 C1.62727539 10.7987793 1.62727539 10.7987793 1.69335938 9.12695312 C1.79982068 6.41810436 1.90183516 3.70916008 2 1 C1.34 0.67 0.68 0.34 0 0 Z " fill="#090707" transform="translate(211,19)"/>
<path d="M0 0 C2.51031359 4.14582093 1.94698527 6.83555367 0.87890625 11.41015625 C-1.78257828 19.25266401 -8.20016755 24.62445564 -15 29 C-21.75581234 32.19782394 -29.74251501 33.0081865 -36.9375 30.875 C-41.60800666 29.02202725 -44.50416104 26.20814323 -47.3125 22.0625 C-48.28356741 19.14929778 -48.3672328 17.06027335 -48 14 C-44.69112667 7.8724568 -40.89443008 4.45497489 -34.3125 2.3125 C-23.06770341 -0.71241604 -11.5477663 -0.10670421 0 0 Z M-43.6484375 9.35546875 C-46.15576279 12.4062894 -46.12140138 16.16911196 -46 20 C-44.89921719 22.89242627 -44.89921719 22.89242627 -43 25 C-42.566875 25.556875 -42.13375 26.11375 -41.6875 26.6875 C-36.31817273 30.86364343 -29.46768515 30.58126129 -23 30 C-14.87271098 28.2882347 -7.53093668 22.89342464 -2.96875 16.00390625 C-1.14626658 12.23401112 -0.31959488 8.16234278 0 4 C-0.495 3.01 -0.495 3.01 -1 2 C-23.58204328 0.82390499 -23.58204328 0.82390499 -43.6484375 9.35546875 Z " fill="#050505" transform="translate(649,89)"/>
<path d="M0 0 C-2.2248543 2.2248543 -3.55214911 2.59698555 -6.5 3.5625 C-12.86801713 5.98531701 -17.23178934 10.25207959 -22 15 C-22.66 14.67 -23.32 14.34 -24 14 C-24.4140625 11.93359375 -24.4140625 11.93359375 -24.625 9.4375 C-24.69976562 8.61121094 -24.77453125 7.78492188 -24.8515625 6.93359375 C-24.90054688 6.29550781 -24.94953125 5.65742188 -25 5 C-29.10415189 4.97101903 -33.20827753 4.9532078 -37.3125 4.9375 C-38.47974609 4.92912109 -39.64699219 4.92074219 -40.84960938 4.91210938 C-41.96787109 4.90888672 -43.08613281 4.90566406 -44.23828125 4.90234375 C-45.26993408 4.89710693 -46.30158691 4.89187012 -47.36450195 4.88647461 C-50.10946274 4.88365 -50.10946274 4.88365 -53 6 C-53 41.64 -53 77.28 -53 114 C-53.33 114 -53.66 114 -54 114 C-54.07002065 99.82274308 -54.12275469 85.64551289 -54.15543652 71.46811867 C-54.17111899 64.88558598 -54.1924044 58.30316913 -54.22631836 51.72070312 C-54.25881965 45.37298818 -54.27683354 39.02538493 -54.28463173 32.67759323 C-54.29019186 30.25098282 -54.30104877 27.8243788 -54.31719017 25.3978157 C-54.33884154 22.00937751 -54.34197206 18.62140593 -54.34057617 15.23291016 C-54.351362 14.22087021 -54.36214783 13.20883026 -54.3732605 12.16612244 C-54.36913651 11.24623032 -54.36501251 10.3263382 -54.36076355 9.37857056 C-54.36352893 8.57661066 -54.36629431 7.77465076 -54.36914349 6.94838905 C-54.24732614 6.30542067 -54.12550879 5.66245228 -54 5 C-47.24886912 0.49924608 -35.00536051 1.2430829 -27 2 C-24.1875 3.01171875 -24.1875 3.01171875 -22 4 C-21.505 7.465 -21.505 7.465 -21 11 C-20.43152344 10.45730469 -19.86304688 9.91460937 -19.27734375 9.35546875 C-8.35993437 -0.75999403 -8.35993437 -0.75999403 0 0 Z " fill="#020102" transform="translate(198,20)"/>
<path d="M0 0 C2.0625 0.4375 2.0625 0.4375 4 1 C3.01 1.33 2.02 1.66 1 2 C0.97287675 4.87506421 0.95310149 7.74986908 0.9375 10.625 C0.92912109 11.43324219 0.92074219 12.24148437 0.91210938 13.07421875 C0.8941045 17.50341918 1.10377338 21.63883424 2 26 C2.59167969 26.03738281 3.18335938 26.07476562 3.79296875 26.11328125 C9.66350641 26.60169466 13.65115792 27.39949627 17.75 31.9375 C19.42852275 34.70706253 20.29733276 36.78212501 19.51171875 40 C19.23972656 40.66 18.96773437 41.32 18.6875 42 C18.26017578 43.04220703 18.26017578 43.04220703 17.82421875 44.10546875 C17.55222656 44.73066406 17.28023437 45.35585937 17 46 C16.67 46.763125 16.34 47.52625 16 48.3125 C15 50 15 50 13.3125 51.4375 C11.73726416 52.94733997 11.73726416 52.94733997 12.14453125 55.2421875 C13.23739455 58.76529932 15.0025709 60.87359947 17.375 63.6875 C18.16648438 64.64011719 18.95796875 65.59273438 19.7734375 66.57421875 C21.94973252 69.13829615 21.94973252 69.13829615 25 71 C28.77604817 70.89794464 30.04575083 69.9600897 32.9375 67.4375 C36 65 36 65 39.375 64.6875 C40.24125 64.790625 41.1075 64.89375 42 65 C41.13375 65.4021875 41.13375 65.4021875 40.25 65.8125 C37.94252104 66.95053246 37.94252104 66.95053246 35.875 68.625 C34 70 34 70 32 70 C31.505 71.485 31.505 71.485 31 73 C28.875 73.75 28.875 73.75 26 74 C19.0580697 70.60616741 14.03438179 64.11140744 9.875 57.75 C9 55 9 55 9.5 52.625 C10.79206023 50.36389459 12.15577102 48.19006786 13.5625 46 C16.23086778 41.82291554 16.23086778 41.82291554 17 37 C15.4566569 33.2137972 15.4566569 33.2137972 13 30 C10.22748148 29.54393425 7.44917145 29.16407166 4.6640625 28.79296875 C1.37792634 27.81483731 0.72538728 26.91442986 -1 24 C-1.35644531 21.45043945 -1.35644531 21.45043945 -1.328125 18.61328125 C-1.32296875 17.59298828 -1.3178125 16.57269531 -1.3125 15.52148438 C-1.291875 14.46251953 -1.27125 13.40355469 -1.25 12.3125 C-1.24484375 11.24193359 -1.2396875 10.17136719 -1.234375 9.06835938 C-1.15407791 1.15407791 -1.15407791 1.15407791 0 0 Z " fill="#050505" transform="translate(214,66)"/>
<path d="M0 0 C9.99486735 7.83759008 15.00027136 17.15511619 16.828125 29.66015625 C17.07425311 31.7624064 17.30958223 33.86609956 17.515625 35.97265625 C16.855625 35.97265625 16.195625 35.97265625 15.515625 35.97265625 C15.30808594 34.80089844 15.10054687 33.62914062 14.88671875 32.421875 C12.61832046 20.49944795 9.87514957 10.63622956 -0.296875 3.03515625 C-16.20056966 -6.97650695 -33.35935431 -6.79872448 -51.484375 -5.02734375 C-51.154375 -5.68734375 -50.824375 -6.34734375 -50.484375 -7.02734375 C-34.08306717 -11.40462854 -14.33205607 -9.42793074 0 0 Z " fill="#080707" transform="translate(663.484375,28.02734375)"/>
<path d="M0 0 C2.10353554 3.23017492 2.0840467 5.6501455 2 9.4375 C2.31249923 13.66382236 2.31249923 13.66382236 4.96875 16.79296875 C7.61349276 18.18472381 10.13678334 19.14833499 13 20 C13.78632813 20.25007813 14.57265625 20.50015625 15.3828125 20.7578125 C17.84046636 21.29729749 19.52331069 21.47577335 22 21 C24.41980962 19.38818189 26.34978389 17.65305138 28.37109375 15.56640625 C30 14 30 14 32 14 C32 14.66 32 15.32 32 16 C30.2421875 17.69140625 30.2421875 17.69140625 27.875 19.5625 C27.10929687 20.18253906 26.34359375 20.80257813 25.5546875 21.44140625 C22.51785546 23.2941524 20.5568686 23.84113242 17 24 C13.421875 23.07421875 13.421875 23.07421875 9.75 21.6875 C8.52796875 21.23761719 7.3059375 20.78773437 6.046875 20.32421875 C3 19 3 19 1 17 C0.44366865 13.43683016 0.10669416 9.87418352 -0.2421875 6.28515625 C-0.74065117 3.03692884 -0.74065117 3.03692884 -2.546875 1.07421875 C-6.12026679 -0.49056269 -9.55142755 -0.35511539 -13.375 -0.25 C-14.48875 -0.24226562 -14.48875 -0.24226562 -15.625 -0.234375 C-19.84398663 -0.17474268 -23.84689588 0.18256363 -28 1 C-28 0.34 -28 -0.32 -28 -1 C-7.56033751 -5.42793462 -7.56033751 -5.42793462 0 0 Z " fill="#050505" transform="translate(302,3)"/>
<path d="M0 0 C0.33 0 0.66 0 1 0 C1.00586624 0.63227005 1.01173248 1.2645401 1.01777649 1.91596985 C1.08161987 8.48586292 1.16601581 15.055262 1.26245117 21.62475586 C1.29574326 24.07781469 1.3237617 26.53095091 1.34643555 28.98413086 C1.37990229 32.50668378 1.43221515 36.02852465 1.48828125 39.55078125 C1.49467117 40.65086014 1.5010611 41.75093903 1.50764465 42.88435364 C1.52743881 43.90518539 1.54723297 44.92601715 1.56762695 45.9777832 C1.57873001 46.87713089 1.58983307 47.77647858 1.60127258 48.70307922 C2.07876549 51.4537388 2.7731657 52.35825745 5 54 C7.7094472 54.41410433 7.7094472 54.41410433 10.76171875 54.29296875 C11.87998047 54.28330078 12.99824219 54.27363281 14.15039062 54.26367188 C15.31763672 54.23853516 16.48488281 54.21339844 17.6875 54.1875 C19.45577148 54.16719727 19.45577148 54.16719727 21.25976562 54.14648438 C24.17363411 54.11109326 27.08658945 54.06171809 30 54 C30.33 51.69 30.66 49.38 31 47 C33 50 33 50 32.8125 52.5625 C32 55 32 55 29 57 C26.62744141 57.25878906 26.62744141 57.25878906 23.8515625 57.265625 C22.84609375 57.26820313 21.840625 57.27078125 20.8046875 57.2734375 C19.23074219 57.26183594 19.23074219 57.26183594 17.625 57.25 C16.06265625 57.26160156 16.06265625 57.26160156 14.46875 57.2734375 C13.46070313 57.27085937 12.45265625 57.26828125 11.4140625 57.265625 C10.4957666 57.26336914 9.5774707 57.26111328 8.63134766 57.25878906 C5.65074122 56.96565093 3.61280832 56.48075876 1 55 C-0.75732635 51.50125466 -1.23364975 48.72916508 -1.13525391 44.8425293 C-1.11508209 43.84186935 -1.09491028 42.84120941 -1.0741272 41.81022644 C-1.04193085 40.7423439 -1.0097345 39.67446136 -0.9765625 38.57421875 C-0.95153656 37.47149124 -0.92651062 36.36876373 -0.90072632 35.23262024 C-0.81868231 31.71726025 -0.72203109 28.20247512 -0.625 24.6875 C-0.56674459 22.30145563 -0.50944166 19.91538779 -0.453125 17.52929688 C-0.31312663 11.6858809 -0.16113973 5.84286913 0 0 Z " fill="#030101" transform="translate(703,86)"/>
<path d="M0 0 C0.66 0 1.32 0 2 0 C5.83943747 13.30090836 6.42476311 23.05720652 -0.35546875 35.484375 C-5.19990681 43.22508568 -11.43608274 49.09991869 -20.375 51.6875 C-23.94054061 52.11196912 -27.40953922 52.06085527 -31 52 C-30.67 51.34 -30.34 50.68 -30 50 C-27.84757349 49.51511271 -25.67634705 49.11272451 -23.5 48.75 C-15.43569363 47.10924591 -9.37955328 44.33384403 -4.1875 37.8125 C3.49439792 25.64949497 2.99816445 13.59881735 0 0 Z " fill="#050505" transform="translate(91,66)"/>
<path d="M0 0 C1.21429687 -0.01417969 2.42859375 -0.02835938 3.6796875 -0.04296875 C6.96844421 0.17702745 9.17865948 0.77034382 12.125 2.1875 C9.12274423 3.11178998 7.01753477 3.15797505 3.9375 2.625 C-2.39248039 1.83375245 -7.49107964 3.01802964 -13.1875 5.8125 C-16.72470881 8.63999612 -16.72470881 8.63999612 -19.875 16.1875 C-32.25 16.6825 -32.25 16.6825 -44.875 17.1875 C-44.875 16.5275 -44.875 15.8675 -44.875 15.1875 C-44.20968262 15.16880859 -43.54436523 15.15011719 -42.85888672 15.13085938 C-39.81967305 15.02290193 -36.78644645 14.85578498 -33.75 14.6875 C-32.70328125 14.65914062 -31.6565625 14.63078125 -30.578125 14.6015625 C-24.742161 14.32356901 -24.742161 14.32356901 -19.90600586 11.39428711 C-18.31456087 9.29722482 -18.31456087 9.29722482 -17.08129883 7.12280273 C-13.25303667 0.98100267 -6.72169048 0.03552691 0 0 Z " fill="#050404" transform="translate(625.875,42.8125)"/>
<path d="M0 0 C1.79891693 3.59783387 -0.00140449 7.41671222 -1.0078125 11.1484375 C-2.33016083 14.94888741 -3.38468082 16.19234041 -7 18 C-16.6243712 22.37734955 -16.6243712 22.37734955 -20.69140625 21.26171875 C-23 20 -23 20 -25.4375 17.4375 C-27.83303341 14.88585414 -27.83303341 14.88585414 -30.8125 13.75 C-35.85107762 14.14518256 -38.56736187 17.50637591 -42 21 C-42 18 -42 18 -40.4609375 16.140625 C-34.91551827 11.11443978 -34.91551827 11.11443978 -31 10.625 C-27.99579014 12.00192952 -26.38360463 13.38585626 -24 15.625 C-21.02927514 18.49154635 -21.02927514 18.49154635 -17.0625 19.1875 C-16.051875 18.795625 -15.04125 18.40375 -14 18 C-12.89591797 17.73896484 -12.89591797 17.73896484 -11.76953125 17.47265625 C-8.99805666 16.63624059 -7.23339704 15.86399487 -5 14 C-3.06801909 9.78236954 -2.05473121 5.50144213 -1 1 C-0.67 0.67 -0.34 0.34 0 0 Z " fill="#050505" transform="translate(274,5)"/>
<path d="M0 0 C0 0.33 0 0.66 0 1 C-1.02738281 1.14695312 -2.05476563 1.29390625 -3.11328125 1.4453125 C-12.16453464 2.86518135 -19.14900179 5.07253783 -27 10 C-27.73734375 10.34804688 -28.4746875 10.69609375 -29.234375 11.0546875 C-31.19116505 11.87996495 -31.19116505 11.87996495 -32 14.0625 C-33 16 -33 16 -35.125 16.75 C-36.053125 16.87375 -36.053125 16.87375 -37 17 C-38.32 15.35 -39.64 13.7 -41 12 C-40.67 11.34 -40.34 10.68 -40 10 C-38.35 11.65 -36.7 13.3 -35 15 C-34.4225 14.154375 -33.845 13.30875 -33.25 12.4375 C-24.82060932 2.2981472 -12.472475 -0.40597568 0 0 Z " fill="#060606" transform="translate(510,20)"/>
<path d="M0 0 C0.66 0.33 1.32 0.66 2 1 C1.6875 2.9375 1.6875 2.9375 1 5 C-2.17787541 6.0592918 -4.42588943 6.11458939 -7.76171875 6.09765625 C-8.87998047 6.09443359 -9.99824219 6.09121094 -11.15039062 6.08789062 C-12.31763672 6.07951172 -13.48488281 6.07113281 -14.6875 6.0625 C-15.86634766 6.05798828 -17.04519531 6.05347656 -18.25976562 6.04882812 C-21.17322789 6.03703273 -24.08658863 6.0205727 -27 6 C-27 5.34 -27 4.68 -27 4 C-18.09 3.67 -9.18 3.34 0 3 C0 2.01 0 1.02 0 0 Z " fill="#020202" transform="translate(553,137)"/>
<path d="M0 0 C0 0.33 0 0.66 0 1 C-0.94359375 1.14695312 -1.8871875 1.29390625 -2.859375 1.4453125 C-13.37229963 3.28190777 -22.46568341 6.28447219 -31 13 C-31.66 12.67 -32.32 12.34 -33 12 C-23.91904583 2.91904583 -12.78021841 -1.26397764 0 0 Z " fill="#060506" transform="translate(441,19)"/>
<path d="M0 0 C-1.74951568 0.95921722 -3.49963244 1.91733817 -5.25 2.875 C-6.22453125 3.40867187 -7.1990625 3.94234375 -8.203125 4.4921875 C-11 6 -11 6 -13.296875 7.0078125 C-15.35151902 7.95365185 -15.35151902 7.95365185 -16 11 C-16.66 11 -17.32 11 -18 11 C-18.268125 11.53625 -18.53625 12.0725 -18.8125 12.625 C-20.20833333 15.41666667 -21.60416667 18.20833333 -23 21 C-23.6796875 19.26953125 -23.6796875 19.26953125 -24 17 C-20.24656172 9.89996466 -8.91898723 -3.18535258 0 0 Z " fill="#070707" transform="translate(603,26)"/>
<path d="M0 0 C5.70394668 3.88905455 8.47055109 8.20968072 10 15 C9.04347826 19.95652174 9.04347826 19.95652174 7 22 C5.00041636 22.04080783 2.99954746 22.04254356 1 22 C4.75 20 4.75 20 7 20 C6.74347067 13.50980796 6.26267356 9.03770511 2 4 C1.34 3.67 0.68 3.34 0 3 C0 2.01 0 1.02 0 0 Z " fill="#050505" transform="translate(641,47)"/>
<path d="M0 0 C0.38800781 0.64453125 0.77601563 1.2890625 1.17578125 1.953125 C2.83946485 4.20878584 2.83946485 4.20878584 5.48046875 4.609375 C6.82044922 4.67898437 6.82044922 4.67898437 8.1875 4.75 C9.08855469 4.80671875 9.98960937 4.8634375 10.91796875 4.921875 C11.60503906 4.94765625 12.29210937 4.9734375 13 5 C13 5.33 13 5.66 13 6 C11.02090602 6.02686553 9.04171029 6.04633375 7.0625 6.0625 C5.96035156 6.07410156 4.85820313 6.08570313 3.72265625 6.09765625 C1 6 1 6 0 5 C-0.04063832 3.33382885 -0.042721 1.66611905 0 0 Z " fill="#1E1C1D" transform="translate(578,52)"/>
<path d="M0 0 C0.66 0.33 1.32 0.66 2 1 C0.02 2.98 -1.96 4.96 -4 7 C-4.66 6.67 -5.32 6.34 -6 6 C-2.25 1.125 -2.25 1.125 0 0 Z " fill="#080607" transform="translate(44,53)"/>
</svg>
